How to Train Your Dragon *2010* [BluRay] [720p] [ENG, POL]

General information:
Country: USA
Release: 18 March 2010
Genre: Animation, Adventure, Comedy, Family, Fantasy 
Director: Dean DeBlois, Chris Sanders
Screenplay: William Davies, Cressida Cowell (novel) 
Original Music: John Powell 
Duration: 1h 37mn
Language: English, Polish
Subtitles: English, Polish
Rating: 8.1/10 - 8901 votes

Cast:
Jay Baruchel  ...  Hiccup (voice)  
Gerard Butler  ...  Stoick (voice)  
Craig Ferguson  ...  Gobber (voice)  
America Ferrera  ...  Astrid (voice)  
Jonah Hill  ...  Snotlout (voice)  
Christopher Mintz-Plasse  ...  Fishlegs (voice)  
T.J. Miller  ...  Tuffnut (voice)  
Kristen Wiig  ...  Ruffnut (voice)  
Robin Atkin Downes  ...  Ack  
Philip McGrade  ...  Starkard (voice)  
Kieron Elliott  ...  Hoark the Haggard (voice)  
Ashley Jensen  ...  Phlegma the Fierce (voice)  

Plot:
A hapless young Viking who aspires to hunt dragons becomes the unlikely friend of a young dragon himself, and learns there may be more to the creatures than he assumed. 

Specifications:
General
Format                           : Matroska
Overall bit rate                 : 4 024 Kbps

Video
Format                           : AVC
Format/Info                      : Advanced Video Codec
Format profile                   : High@L4.1
Format settings, CABAC           : Yes
Format settings, ReFrames        : 5 frames
Muxing mode                      : Container profile=Unknown@4.1
Codec ID                         : V_MPEG4/ISO/AVC
Bit rate                         : 2 999 Kbps
Width                            : 1 280 pixels
Height                           : 544 pixels
Display aspect ratio             : 2.35:1
Original display aspect ratio    : 2.35:1
Frame rate                       : 23.976 fps

Audio 1
Format                           : AC-3
Format/Info                      : Audio Coding 3
Mode extension                   : CM (complete main)
Codec ID                         : A_AC3
Bit rate mode                    : Constant
Bit rate                         : 384 Kbps
Channel(s)                       : 6 channels
Channel positions                : Front: L C R, Side: L R, LFE
Sampling rate                    : 48.0 KHz
Stream size                      : 269 MiB (10%)
Title                            : English

Audio 2
Format                           : AC-3
Format/Info                      : Audio Coding 3
Mode extension                   : CM (complete main)
Codec ID                         : A_AC3
Bit rate mode                    : Constant
Bit rate                         : 640 Kbps
Channel(s)                       : 6 channels
Channel positions                : Front: L C R, Side: L R, LFE
Sampling rate                    : 48.0 KHz
Stream size                      : 448 MiB (16%)
Title                            : Polish

Text 1
Format                           : UTF-8
Codec ID                         : S_TEXT/UTF8
Codec ID/Info                    : UTF-8 Plain Text
Title                            : English
Jak wytresować smoka - How to Train Your Dragon*2010*[BluRay][720p][Dubbing i Napisy PL]
Text 2

Format                           : UTF-8
Codec ID                         : S_TEXT/UTF8
Codec ID/Info                    : UTF-8 Plain Text
Title                            : Polish
